<svg xmlns="http://www.w3.org/2000/svg" width="99.58" height="142.96" viewBox="0 0 99.58 142.96">
  <title>Asset 26</title>
  <g id="Layer_2" data-name="Layer 2">
    <g id="Variable_Settings_Cams" data-name="Variable Settings Cams">
      <g id="D_cam_Spring" data-name="D cam Spring">
        <circle cx="51.51" cy="115.32" r="5.67" fill="none" stroke="#231f20" stroke-miterlimit="10" stroke-width="0.25"/>
        <rect x="34.6" y="122.22" width="19.84" height="2.83" transform="translate(140.16 213.76) rotate(153.1)" fill="#231f20"/>
      </g>
      <circle cx="33.41" cy="27.64" r="27.64" fill="#58595b" opacity="0.6"/>
      <circle cx="51.51" cy="115.32" r="27.64" fill="#58595b" opacity="0.6"/>
      <path id="D_cam_cutout" data-name="D cam cutout" d="M55.8,136.87c-7.12,1.66-15.13-.66-21.12-7.44C27.2,121,28,107.32,36.55,99.25a20.48,20.48,0,0,1,10.88-5.51,71.38,71.38,0,0,1,6.29,6.46c3.41,4,6.8,9,7.48,12.88C62.37,119.61,57,133.57,55.8,136.87Z" fill="#231f20"/>
      <path id="D_cam_plate" data-name="D cam plate" d="M60.79,112.18c1.62,4.11-5.53,24.22-5.53,24.22a21.31,21.31,0,0,1-24.33-14.93,22.62,22.62,0,0,1,7.44-23.1S58.07,105.27,60.79,112.18Z" fill="#009444"/>
      <path id="D_cam" data-name="D cam" d="M0,139.14s32.07-4,39.79-6.68c8.06-2.76,26.28-10.64,20.49-21.9-4.2-8.18-17-4.12-28.45,3.17C21.68,120.18,0,139.14,0,139.14Z" fill="#ef4136"/>
      <path d="M72,112l-1.21-2.57-13.58,6.4a5.67,5.67,0,1,0-3.23,4.65l.07,0h0Z" fill="#231f20"/>
      <path d="M56.57,112.76a5.67,5.67,0,0,0-10.11,5.13,5.6,5.6,0,0,0,2,2.18L35,126.86l1.28,2.53,17.7-9h0l.07,0A5.67,5.67,0,0,0,56.57,112.76Z" fill="#231f20"/>
      <g id="C_cam_shaped" data-name="C cam shaped">
        <path id="C_cam" data-name="C cam" d="M99.58,25.87s-14.75,14-31,15.4c-10.42.93-24.8-6.6-25.18-15.38C42.74,10,65.14,19,81.92,24.29,89.34,26.61,99.58,25.87,99.58,25.87Z" fill="#ef4136"/>
        <path d="M57.65,22.47l-.06,0h0L44.16,7.81,42.08,9.73,52.26,20.79a5.65,5.65,0,1,0,5.39,1.68Z" fill="#231f20"/>
        <path d="M71.17,37.07,57.69,22.51h0l0-.07a5.67,5.67,0,1,0-.3,8A5.61,5.61,0,0,0,58.87,28L69.09,39Z" fill="#231f20"/>
      </g>
      <path id="B_cam_cutout" data-name="B cam cutout" d="M41.87,47.92a22,22,0,1,1-1.09-41S43.19,21,43.35,25.77C43.55,31.32,41.87,47.92,41.87,47.92Z" fill="#231f20"/>
      <path id="B_cam_plate" data-name="B cam plate" d="M40.8,33.32c-2.48,3.66-22.67,9-22.67,9a21.26,21.26,0,0,1,22-35S45,27.17,40.8,33.32Z" fill="#009444"/>
      <path id="B_cam" data-name="B cam" d="M5.54,1.94S28.34,51.51,41.38,33C51,19.42,5.54,1.94,5.54,1.94Z" fill="#ef4136"/>
      <path d="M53.43,32.83l-17-10.14h0l-.06,0a5.67,5.67,0,1,0,2,7.76,5.57,5.57,0,0,0,.79-2.82L52,35.27Z" fill="#231f20"/>
      <path d="M36.51,22.78l-.06,0h0L19.84,11.88l-1.55,2.38,12.57,8.21a5.67,5.67,0,1,0,5.65.31Z" fill="#231f20"/>
      <circle cx="51.51" cy="115.32" r="21.97" fill="none"/>
    </g>
  </g>
</svg>
