<svg xmlns="http://www.w3.org/2000/svg" width="141.12" height="101.68" viewBox="0 0 141.12 101.68">
  <title>Asset 27</title>
  <g id="Layer_2" data-name="Layer 2">
    <g id="Variable_Settings_Cams" data-name="Variable Settings Cams">
      <circle cx="132.61" cy="93.18" r="8.5" fill="#6d6e71"/>
      <circle cx="132.61" cy="93.18" r="4.25" fill="#231f20"/>
      <g id="T1">
        <circle cx="35.88" cy="14.99" r="4.25" fill="#ec008c"/>
        <path id="T1-2" data-name="T1" d="M36.63.11C29.5-1.13,11.72,8.39,11.72,8.39s31,29,47,40.83c25,18.55,73.87,44,73.87,44S49.1,2.27,36.63.11Z" fill="#ec008c" opacity="0.3"/>
      </g>
      <g id="T1-3" data-name="T1">
        <circle cx="33.84" cy="17.59" r="4.25" fill="#ec008c"/>
        <path id="T1-4" data-name="T1" d="M34.19,2.7C27,1.65,9.51,11.64,9.51,11.64S41.3,39.78,57.6,51.2c25.52,17.87,75,42,75,42S46.72,4.52,34.19,2.7Z" fill="#ec008c" opacity="0.3"/>
      </g>
      <g id="T1-5" data-name="T1">
        <circle cx="31.97" cy="20.09" r="4.25" fill="#ec008c"/>
        <path id="T1-6" data-name="T1" d="M32,5.19C24.77,4.33,7.5,14.75,7.5,14.75S40,42.09,56.57,53.09c26,17.23,76,40.09,76,40.09S44.52,6.71,32,5.19Z" fill="#ec008c" opacity="0.3"/>
      </g>
      <g id="T1-7" data-name="T1">
        <circle cx="30.13" cy="22.69" r="4.25" fill="#ec008c"/>
        <path id="T1-8" data-name="T1" d="M29.73,7.8C22.53,7.12,5.53,18,5.53,18s33.18,26.5,50,37.07C82,71.61,132.61,93.18,132.61,93.18S42.33,9,29.73,7.8Z" fill="#ec008c" opacity="0.3"/>
      </g>
      <g id="T1-9" data-name="T1">
        <circle cx="28.36" cy="25.35" r="4.25" fill="#ec008c"/>
        <path id="T1-10" data-name="T1" d="M27.58,10.47C20.36,10,3.65,21.27,3.65,21.27S37.49,46.91,54.61,57c26.81,15.88,78,36.14,78,36.14S40.2,11.34,27.58,10.47Z" fill="#ec008c" opacity="0.3"/>
      </g>
      <g id="T1-11" data-name="T1">
        <circle cx="26.54" cy="28.23" r="4.25" fill="#ec008c"/>
        <path id="T1-12" data-name="T1" d="M25.35,13.38c-7.23-.3-23.63,11.45-23.63,11.45S36.26,49.53,53.65,59.2c27.23,15.13,79,34,79,34S38,13.9,25.35,13.38Z" fill="#ec008c" opacity="0.3"/>
      </g>
      <path id="TCam_with_hole" data-name="TCam with hole" d="M23.32,16.18C16.09,16.07,0,28.24,0,28.24s35.16,23.8,52.8,33c27.61,14.43,77.9,35.26,79.81,31.93C134.69,89.56,36,16.37,23.32,16.18Zm2.22,19a4.25,4.25,0,1,1,3.56-4.86A4.25,4.25,0,0,1,25.54,35.2Z" fill="#ec008c" opacity="0.3"/>
    </g>
  </g>
</svg>
